<svg width="26" height="26" viewBox="0 0 26 26" fill="none" xmlns="http://www.w3.org/2000/svg">
<g clip-path="url(#clip0)">
<path d="M0 0H26V26H0V0Z" fill="url(#paint0_linear)"/>
<path d="M8.45495 18.9286L8.45736 18.9294L7.58019 20.4487C7.26002 21.0033 6.55083 21.1933 5.99625 20.8731C5.44169 20.5529 5.25167 19.8437 5.57184 19.2892L6.21804 18.1699L6.28004 18.0625C6.39079 17.9033 6.6641 17.6286 7.21078 17.6803C7.21078 17.6803 8.49725 17.8199 8.59033 18.4885C8.59036 18.4885 8.60305 18.7086 8.45495 18.9286ZM20.8963 15.0481H18.161C17.9747 15.0356 17.8933 14.9691 17.8614 14.9304L17.8594 14.9269L14.9312 9.85528L14.9275 9.85782L14.7518 9.60602C14.4641 9.16592 14.007 10.2916 14.007 10.2916C13.4614 11.5458 14.0845 12.9719 14.3017 13.4029L18.3687 20.4471C18.6888 21.0017 19.398 21.1917 19.9526 20.8715C20.5072 20.5514 20.6972 19.8422 20.377 19.2876L19.36 17.5261C19.3403 17.4835 19.306 17.3676 19.5146 17.3671H20.8963C21.5367 17.3671 22.0558 16.848 22.0558 16.2076C22.0558 15.5672 21.5367 15.0481 20.8963 15.0481ZM15.5834 16.6244C15.5834 16.6244 15.7294 17.3671 15.1644 17.3671H14.5995V17.3671H5.05258C4.4122 17.3671 3.89307 16.848 3.89307 16.2076C3.89307 15.5672 4.4122 15.0481 5.05258 15.0481H7.65223C8.07193 15.0238 8.17144 14.7815 8.17144 14.7815L8.17372 14.7827L11.5671 8.90508L11.5661 8.90488C11.628 8.79133 11.5765 8.68406 11.5675 8.66707L10.4468 6.72603C10.1266 6.17145 10.3167 5.46229 10.8713 5.14212C11.4258 4.82192 12.135 5.01194 12.4552 5.56652L12.9749 6.46677L13.4937 5.56812C13.8139 5.01354 14.5231 4.82352 15.0777 5.14372C15.6322 5.46392 15.8223 6.17308 15.5021 6.72763L10.78 14.9064C10.7594 14.9562 10.7531 15.0343 10.9067 15.0481H13.7292L13.7299 15.0756C13.7299 15.0756 15.3612 15.101 15.5834 16.6244Z" fill="white"/>
</g>
<defs>
<linearGradient id="paint0_linear" x1="13" y1="26" x2="13" y2="0" gradientUnits="userSpaceOnUse">
<stop stop-color="#1D76F2"/>
<stop offset="1" stop-color="#1AC2FB"/>
</linearGradient>
<clipPath id="clip0">
<rect width="26" height="26" rx="13" fill="white"/>
</clipPath>
</defs>
</svg>
