<svg width="16" height="14" viewBox="0 0 16 14" fill="none" xmlns="http://www.w3.org/2000/svg">
<path d="M6.82096 1.18867C6.93901 0.979938 7.11036 0.806288 7.3175 0.685464C7.52465 0.564641 7.76015 0.500977 7.99996 0.500977C8.23976 0.500977 8.47527 0.564641 8.68241 0.685464C8.88955 0.806288 9.0609 0.979938 9.17896 1.18867L15.317 11.9422C15.839 12.8572 15.1835 14.0002 14.1365 14.0002H1.86496C0.817957 14.0002 0.162458 12.8572 0.684458 11.9422L6.82246 1.18717L6.82096 1.18867ZM7.24996 5.75017V7.25017C7.24996 7.44908 7.32898 7.63985 7.46963 7.7805C7.61028 7.92115 7.80105 8.00017 7.99996 8.00017C8.19887 8.00017 8.38964 7.92115 8.53029 7.7805C8.67094 7.63985 8.74996 7.44908 8.74996 7.25017V5.75017C8.74996 5.55126 8.67094 5.36049 8.53029 5.21984C8.38964 5.07919 8.19887 5.00017 7.99996 5.00017C7.80105 5.00017 7.61028 5.07919 7.46963 5.21984C7.32898 5.36049 7.24996 5.55126 7.24996 5.75017ZM7.99996 9.12517C7.70159 9.12517 7.41544 9.2437 7.20446 9.45468C6.99348 9.66565 6.87496 9.9518 6.87496 10.2502C6.87496 10.5485 6.99348 10.8347 7.20446 11.0457C7.41544 11.2566 7.70159 11.3752 7.99996 11.3752C8.29833 11.3752 8.58447 11.2566 8.79545 11.0457C9.00643 10.8347 9.12496 10.5485 9.12496 10.2502C9.12496 9.9518 9.00643 9.66565 8.79545 9.45468C8.58447 9.2437 8.29833 9.12517 7.99996 9.12517Z" fill="#D94242"/>
</svg>
