<svg width="85" height="13" viewBox="0 0 85 13" fill="none" xmlns="http://www.w3.org/2000/svg">
<path d="M6.5 0L8.25748 4.08104L12.6819 4.49139L9.34366 7.42396L10.3206 11.7586L6.5 9.49L2.6794 11.7586L3.65634 7.42396L0.318133 4.49139L4.74252 4.08104L6.5 0Z" fill="#4BFF93"/>
<path d="M24.5 0L26.2575 4.08104L30.6819 4.49139L27.3437 7.42396L28.3206 11.7586L24.5 9.49L20.6794 11.7586L21.6563 7.42396L18.3181 4.49139L22.7425 4.08104L24.5 0Z" fill="#4BFF93"/>
<path d="M42.5 0L44.2575 4.08104L48.6819 4.49139L45.3437 7.42396L46.3206 11.7586L42.5 9.49L38.6794 11.7586L39.6563 7.42396L36.3181 4.49139L40.7425 4.08104L42.5 0Z" fill="#4BFF93"/>
<path d="M60.5 0L62.2575 4.08104L66.6819 4.49139L63.3437 7.42396L64.3206 11.7586L60.5 9.49L56.6794 11.7586L57.6563 7.42396L54.3181 4.49139L58.7425 4.08104L60.5 0Z" fill="#4BFF93"/>
<path d="M78.5 0L80.2575 4.08104L84.6819 4.49139L81.3437 7.42396L82.3206 11.7586L78.5 9.49L74.6794 11.7586L75.6563 7.42396L72.3181 4.49139L76.7425 4.08104L78.5 0Z" fill="#4BFF93"/>
</svg>
